<?xml version="1.0" encoding="utf-8"?>
<!-- Svg Vector Icons : http://www.onlinewebfonts.com/icon -->
<!DOCTYPE svg PUBLIC "-//W3C//DTD SVG 1.1//EN" "http://www.w3.org/Graphics/SVG/1.1/DTD/svg11.dtd">
<svg version="1.1" xmlns="http://www.w3.org/2000/svg" xmlns:xlink="http://www.w3.org/1999/xlink" x="0px" y="0px" viewBox="0 0 1000 1000" enable-background="new 0 0 1000 1000" xml:space="preserve">
<metadata> Svg Vector Icons : http://www.onlinewebfonts.com/icon </metadata>
<g><path d="M990,500c0,270.6-219.4,490-490,490C229.4,990,10,770.6,10,500S229.4,10,500,10C770.6,10,990,229.4,990,500z M310.4,515.4L435,425.1l101.9,67.4l159.6-152.8l32.7,25.7l12.1-86.5l-93.7,8.3l26.1,30.8L529.3,452.4l-96-63.3L293,492.1L310.4,515.4z M224.6,749.5h550.6l-0.1-31.1H253V268.6h-28.4L224.6,749.5L224.6,749.5z M301.1,679.5H435l-0.2-201.7l-133.6,95.9V679.5z M469.2,679.5h117.1V507.6l-42,42.6l-75.1-52L469.2,679.5L469.2,679.5z M621.4,679.5h117.2V373.6L621.4,487.9V679.5z"/></g>
</svg>